<svg version="1" xmlns="http://www.w3.org/2000/svg" width="120" height="120" viewBox="0 0 90.000000 90.000000"><path d="M0 45.5V90h90V1H0v44.5zm75.8-30.3c1.7 1.7 1.7 59.9 0 61.6-1.7 1.7-59.9 1.7-61.6 0-1.7-1.7-1.7-59.9 0-61.6 1.7-1.7 59.9-1.7 61.6 0z"/><path d="M24 45.4c0 9.6 0 9.6 2.5 9.6 2.2 0 2.5-.4 2.5-3.5 0-2.8.4-3.5 2-3.5s2 .7 2 3.5c0 3.1.3 3.5 2.5 3.5h2.6l-.3-9.3c-.3-8.4-.5-9.2-2.3-9.2-1.5 0-2.1.8-2.3 3.2-.2 2.4-.8 3.3-2.2 3.3-1.4 0-2-.9-2.2-3.3-.2-2.4-.8-3.3-2.5-3.5-2.2-.3-2.3-.1-2.3 9.2zM42.8 37.1c-1.2.6-1.8 2.2-1.8 4.5 0 2.9.6 3.8 3.5 5.5 4 2.4 3.7 4.3-.6 3.7-2.6-.4-3.9.6-3.9 3.2 0 1.4 5.8 2 8.9.9 5.4-1.9 5.4-8.7.1-10.9-4.1-1.7-4.1-4.5.1-3.6 2.7.5 3 .3 2.7-1.7-.2-1.7-1-2.3-3.8-2.4-1.9-.2-4.3.2-5.2.8z"/><path d="M56.6 37.5c-.9.9-1.6 3-1.6 4.6 0 2.3.8 3.4 3.5 5 4 2.4 3.7 4.3-.6 3.7-2.5-.4-3.9.6-3.9 2.8 0 1.5 5.6 2.4 8.6 1.4 5.6-1.9 5.9-8.7.4-11-4.1-1.7-4.1-4.5.1-3.6 2.7.5 3 .3 2.7-1.7-.2-1.7-1-2.3-3.9-2.5-2.4-.2-4.2.3-5.3 1.3z"/></svg>